<svg
    height="200px"
    width="200px"
    version="1.1"
    id="_x32_"
    xmlns="http://www.w3.org/2000/svg"
    xmlnsXlink="http://www.w3.org/1999/xlink"
    viewBox="0 0 512 512"
    xmlSpace="preserve"
    fill="#ffffff"
    className="w-5 h-5"
>
    <g id="SVGRepo_bgCarrier" stroke-width="0"></g>
    <g
        id="SVGRepo_tracerCarrier"
        stroke-linecap="round"
        stroke-linejoin="round"
    ></g>
    <g id="SVGRepo_iconCarrier">

        <style type="text/css"></style>
        <g>

            <path
                className="st0"
                d="M154.52,265.848l90.964,69.014c2.329,1.766,4.674,2.702,6.78,2.702c2.148,0,4.022-0.974,5.276-2.741 c1.199-1.688,1.807-3.99,1.807-6.844v-26.424c0-6.952,5.656-12.608,12.607-12.608h75.036c8.705,0,15.788-7.085,15.788-15.788 v-34.313c0-8.703-7.083-15.788-15.788-15.788h-75.036c-6.951,0-12.607-5.656-12.607-12.608v-26.425 c0-7.065-3.659-9.584-7.082-9.584c-2.106,0-4.451,0.936-6.78,2.702l-90.964,69.014c-3.416,2.59-5.297,6.087-5.297,9.849 C149.223,259.762,151.103,263.259,154.52,265.848z"
            ></path>
            <path
                className="st0"
                d="M256,0C114.842,0,0.002,114.84,0.002,256S114.842,512,256,512c141.158,0,255.998-114.84,255.998-256 S397.158,0,256,0z M256,66.785c104.334,0,189.216,84.879,189.216,189.215S360.334,445.215,256,445.215S66.783,360.336,66.783,256 S151.667,66.785,256,66.785z"
            ></path>
        </g>
    </g>
</svg>